<?xml version="1.0" encoding="iso-8859-1"?>
<!-- Generator: Adobe Illustrator 19.0.0, SVG Export Plug-In . SVG Version: 6.00 Build 0)  -->
<svg version="1.1" id="Capa_1" xmlns="http://www.w3.org/2000/svg" xmlns:xlink="http://www.w3.org/1999/xlink" x="0px" y="0px"
	 viewBox="0 0 512.12 512.12" style="enable-background:new 0 0 512.12 512.12;" xml:space="preserve">
<path style="fill:#455A64;" d="M16,256.06h64c8.837,0,16,7.163,16,16v224c0,8.837-7.163,16-16,16H16c-8.837,0-16-7.163-16-16v-224
	C0,263.223,7.163,256.06,16,256.06z"/>
<path style="fill:#FFE082;" d="M501.888,290.588c-16.265-20.823-46.302-24.585-67.2-8.416l-118.144,91.776
	c-8.426,6.554-18.797,10.112-29.472,10.112H176c44.183,0,80-35.817,80-80c0-8.837-7.163-16-16-16H96v192h212.992
	c17.793-0.002,35.078-5.937,49.12-16.864l135.36-105.248c20.925-16.276,24.693-46.434,8.417-67.358
	C501.889,290.589,501.888,290.589,501.888,290.588z"/>
<path style="fill:#455A64;" d="M480,32.06h-57.376L395.328,4.732c-3.006-2.999-7.082-4.68-11.328-4.672h-64
	c-4.246-0.008-8.322,1.673-11.328,4.672L281.344,32.06H224c-17.673,0-32,14.327-32,32v160c0,17.673,14.327,32,32,32h256
	c17.673,0,32-14.327,32-32v-160C512,46.387,497.673,32.06,480,32.06z"/>
<circle style="fill:#2196F3;" cx="352" cy="144.06" r="64"/>
<path d="M480,256.06H224c-17.673,0-32-14.327-32-32v-160c0-17.673,14.327-32,32-32h57.376l27.296-27.328
	c3.006-2.999,7.082-4.68,11.328-4.672h64c4.246-0.008,8.322,1.673,11.328,4.672l27.296,27.328H480c17.673,0,32,14.327,32,32v160
	C512,241.733,497.673,256.06,480,256.06z M224,64.06v160h256v-160h-64c-4.246,0.008-8.322-1.673-11.328-4.672L377.376,32.06h-50.752
	l-27.296,27.328c-3.006,2.999-7.082,4.68-11.328,4.672H224z"/>
<path d="M352,208.06c-35.346,0-64-28.654-64-64s28.654-64,64-64s64,28.654,64,64S387.346,208.06,352,208.06z M352,112.06
	c-17.673,0-32,14.327-32,32s14.327,32,32,32s32-14.327,32-32S369.673,112.06,352,112.06z"/>
<path d="M80,512.06H16c-8.837,0-16-7.163-16-16v-224c0-8.837,7.163-16,16-16h64c8.837,0,16,7.163,16,16v224
	C96,504.897,88.837,512.06,80,512.06z M32,480.06h32v-192H32V480.06z"/>
<path d="M309.12,480.06H80v-32h229.12c10.604-0.071,20.892-3.624,29.28-10.112L473.6,332.86c3.527-2.631,5.836-6.58,6.4-10.944
	c0.535-4.105-0.62-8.251-3.2-11.488c-2.596-3.534-6.53-5.848-10.88-6.4c-4.082-0.499-8.195,0.653-11.424,3.2L340.48,395.612
	c-16.791,13.203-37.52,20.402-58.88,20.448H176v-32h105.6c14.171-0.016,27.928-4.781,39.072-13.536l113.984-88.416
	c9.946-7.842,22.65-11.307,35.2-9.6c12.77,1.533,24.391,8.128,32.256,18.304c7.802,9.966,11.262,22.653,9.6,35.2
	c-1.574,12.746-8.19,24.329-18.368,32.16L358.048,463.42C344.002,474.178,326.812,480.024,309.12,480.06z"/>
<path d="M176,416.06c-8.837,0-16-7.163-16-16s7.163-16,16-16c38.021,0.008,70.796-26.747,78.4-64H80c-8.837,0-16-7.163-16-16
	s7.163-16,16-16h192c8.837,0,16,7.163,16,16C288,365.916,237.856,416.06,176,416.06z"/>
<g>
</g>
<g>
</g>
<g>
</g>
<g>
</g>
<g>
</g>
<g>
</g>
<g>
</g>
<g>
</g>
<g>
</g>
<g>
</g>
<g>
</g>
<g>
</g>
<g>
</g>
<g>
</g>
<g>
</g>
</svg>
